<svg xmlns="http://www.w3.org/2000/svg" xmlns:xlink="http://www.w3.org/1999/xlink" version="1.1" width="256" height="256" viewBox="0 0 256 256" xml:space="preserve">

<defs>
</defs>
<g style="stroke: none; stroke-width: 0; stroke-dasharray: none; stroke-linecap: butt; stroke-linejoin: miter; stroke-miterlimit: 10; fill: none; fill-rule: nonzero; opacity: 1;" transform="translate(1.4065934065934016 1.4065934065934016) scale(2.81 2.81)" >
	<path d="M 79.666 51.755 c 0 -1.794 -1.459 -3.253 -3.253 -3.253 s -3.254 1.459 -3.254 3.253 c 0 1.443 0.951 2.655 2.254 3.079 v 10.169 c 0 5.789 -4.71 10.499 -10.499 10.499 s -10.499 -4.71 -10.499 -10.499 V 54.834 c 1.303 -0.425 2.253 -1.637 2.253 -3.079 c 0 -1.794 -1.459 -3.253 -3.253 -3.253 s -3.254 1.459 -3.254 3.253 c 0 1.443 0.951 2.655 2.254 3.079 v 10.169 c 0 6.892 5.607 12.499 12.499 12.499 s 12.499 -5.607 12.499 -12.499 V 54.834 C 78.716 54.41 79.666 53.198 79.666 51.755 z M 53.415 50.502 c 0.69 0 1.253 0.563 1.253 1.253 s -0.563 1.253 -1.253 1.253 c -0.691 0 -1.254 -0.563 -1.254 -1.253 S 52.724 50.502 53.415 50.502 z M 76.413 53.008 c -0.691 0 -1.254 -0.563 -1.254 -1.253 s 0.563 -1.253 1.254 -1.253 c 0.69 0 1.253 0.563 1.253 1.253 S 77.104 53.008 76.413 53.008 z" style="stroke: none; stroke-width: 1; stroke-dasharray: none; stroke-linecap: butt; stroke-linejoin: miter; stroke-miterlimit: 10; fill: rgb(0,0,0); fill-rule: nonzero; opacity: 1;" transform=" matrix(1 0 0 1 0 0) " stroke-linecap="round" />
	<path d="M 84.737 46.622 c -0.146 -1.585 -1.456 -2.78 -3.048 -2.78 H 63.564 l -1.371 -14.894 c -0.188 -2.03 -1.867 -3.562 -3.906 -3.562 h -6.481 v -8.082 C 51.805 7.763 44.042 0 34.5 0 S 17.195 7.763 17.195 17.305 v 8.082 h -6.482 c -2.039 0 -3.718 1.531 -3.905 3.562 L 1.58 85.719 c -0.101 1.096 0.266 2.189 1.007 3.002 C 3.329 89.534 4.384 90 5.484 90 h 38.966 h 40.926 c 0.858 0 1.683 -0.364 2.262 -0.998 c 0.578 -0.635 0.864 -1.488 0.786 -2.343 L 84.737 46.622 z M 19.195 17.305 C 19.195 8.866 26.061 2 34.5 2 s 15.305 6.866 15.305 15.305 v 8.082 H 19.195 V 17.305 z M 4.065 87.373 c -0.369 -0.403 -0.544 -0.926 -0.494 -1.471 L 8.8 29.131 c 0.092 -0.995 0.915 -1.745 1.914 -1.745 h 6.482 v 4.741 C 15.366 32.578 14 34.221 14 36.188 c 0 2.313 1.882 4.195 4.195 4.195 c 2.313 0 4.195 -1.882 4.195 -4.195 c 0 -1.967 -1.366 -3.61 -3.195 -4.061 v -4.741 h 30.609 v 4.741 c -1.83 0.451 -3.195 2.094 -3.195 4.062 c 0 2.313 1.882 4.195 4.195 4.195 S 55 38.501 55 36.188 c 0 -1.967 -1.366 -3.61 -3.195 -4.062 v -4.741 h 6.481 c 1 0 1.822 0.75 1.914 1.745 l 1.355 14.71 H 48.139 c -1.592 0 -2.901 1.195 -3.047 2.78 l -3.688 40.037 c -0.043 0.46 0.028 0.916 0.186 1.341 H 5.484 C 4.938 88 4.433 87.777 4.065 87.373 z M 18.195 33.993 c 1.21 0 2.195 0.985 2.195 2.195 s -0.984 2.195 -2.195 2.195 S 16 37.399 16 36.188 S 16.985 33.993 18.195 33.993 z M 50.805 33.993 c 1.211 0 2.195 0.985 2.195 2.195 s -0.984 2.195 -2.195 2.195 s -2.195 -0.984 -2.195 -2.195 S 49.594 33.993 50.805 33.993 z M 86.16 87.654 C 85.957 87.877 85.679 88 85.377 88 H 44.451 c -0.302 0 -0.58 -0.123 -0.784 -0.346 c -0.203 -0.224 -0.3 -0.512 -0.272 -0.812 l 3.688 -40.037 c 0.05 -0.55 0.504 -0.964 1.056 -0.964 h 33.551 c 0.552 0 1.006 0.414 1.056 0.964 l 3.688 40.037 C 86.461 87.143 86.364 87.431 86.16 87.654 z" style="stroke: none; stroke-width: 1; stroke-dasharray: none; stroke-linecap: butt; stroke-linejoin: miter; stroke-miterlimit: 10; fill: rgb(0,0,0); fill-rule: nonzero; opacity: 1;" transform=" matrix(1 0 0 1 0 0) " stroke-linecap="round" />
</g>
</svg>